<?xml version="1.0" encoding="utf-8"?>
<svg width="800px" height="800px" fill="currentColor" class="icon--svg" role="img" viewBox="0 0 24 24">
  <title>Adobe InDesign icon</title>
  <path d="M0 .3v23.4h24V.3zm1 1h22v21.4H1zm7.78 15.22q.02.14-.14.13H7.11q-.14 0-.14-.13V5.78q.01-.14.14-.13h1.55q.12 0 .12.12zm1.77-3.87c0-2.4 1.57-4.26 4.1-4.26l.52.01V5.75c0-.07.06-.1.1-.1h1.63q.11 0 .1.08v9.36q-.01.42.05 1 0 .09-.09.12c-.85.41-1.76.6-2.62.6-2.21 0-3.8-1.38-3.8-4.16zm4.62-2.63q-.21-.1-.59-.1c-1.28 0-2.19 1-2.19 2.64 0 1.88.92 2.64 2.08 2.64.24 0 .5-.03.7-.11z"/>
</svg>
