<svg width="36" height="28" fill="none" xmlns="http://www.w3.org/2000/svg"  viewBox="0 0 36 28" >
<path d="M7.63208 27.0969C5.52008 27.0969 3.79208 26.3929 2.44808 24.9849C1.16808 23.5769 0.528076 21.6889 0.528076 19.3209C0.528076 15.1609 1.90408 11.5449 4.65608 8.47292C7.47208 5.40091 10.8321 2.87291 14.7361 0.888916L15.6961 2.52091C14.0961 3.54491 12.5921 4.85691 11.1841 6.45691C9.84008 8.05692 8.78408 9.78492 8.01608 11.6409L10.7041 13.6569C11.7921 14.3609 12.6881 15.3209 13.3921 16.5369C14.0961 17.6889 14.4481 18.8089 14.4481 19.8969C14.4481 21.9449 13.8081 23.6729 12.5281 25.0809C11.3121 26.4249 9.68008 27.0969 7.63208 27.0969ZM27.4081 27.0969C25.2961 27.0969 23.5681 26.3929 22.2241 24.9849C20.9441 23.5769 20.3041 21.6889 20.3041 19.3209C20.3041 15.1609 21.6801 11.5449 24.4321 8.47292C27.2481 5.40091 30.6081 2.87291 34.5121 0.888916L35.4721 2.52091C33.8721 3.54491 32.3681 4.85691 30.9601 6.45691C29.6161 8.05692 28.5601 9.78492 27.7921 11.6409L30.4801 13.6569C31.5681 14.3609 32.4641 15.3209 33.1681 16.5369C33.8721 17.6889 34.2241 18.8089 34.2241 19.8969C34.2241 21.9449 33.5841 23.6729 32.3041 25.0809C31.0881 26.4249 29.4561 27.0969 27.4081 27.0969Z" fill="#F26221"/>
</svg>
