<svg fill="none" height="800" viewBox="0 0 24 24" width="800" xmlns="http://www.w3.org/2000/svg"><path d="m11.9999 8.66667h-3.33332m3.33332 0v-6.66667h-3.33331c-1.84095 0-3.33334 1.49238-3.33334 3.33333s1.49238 3.33334 3.33333 3.33334m3.33332 0v6.66663h-3.33332m3.33332-6.66663h3.3334m-6.66672 0c-1.84095 0-3.33333 1.49243-3.33333 3.33333s1.49238 3.3333 3.33333 3.3333m0 0c-1.84094 0-3.33333 1.4924-3.33333 3.3334 0 1.8409 1.49239 3.3333 3.33334 3.3333 1.84091 0 3.33331-1.4924 3.33331-3.3333m3.3334-10.00003c-1.841 0-3.3334 1.49243-3.3334 3.33333s1.4924 3.3333 3.3334 3.3333c1.8409 0 3.3333-1.4924 3.3333-3.3333s-1.4924-3.33333-3.3333-3.33333zm0 0c1.8409 0 3.3333-1.49239 3.3333-3.33334s-1.4924-3.33333-3.3333-3.33333" stroke="#1c274c" stroke-linecap="round" stroke-linejoin="round" stroke-width="1.5"/></svg>