<?xml version="1.0" standalone="no"?>
<svg width="800" height="800" viewBox="0 0 50 50">
<g style="fill:black;fill-opacity:1;stroke:none;stroke-width:1;stroke-opacity:0;fill-rule:nonzero;">
<g style="fill:#eceff1;">
  <path d="m34.133 3.965-26.049 4.126c-1.091.173-1.835 1.197-1.663 2.288l5.058 31.934c.173 1.091 1.197 1.835 2.288 1.663l26.049-4.126c1.091-.173 1.835-1.197 1.663-2.288l-5.058-31.934c-.173-1.091-1.197-1.835-2.288-1.663z"/>
</g>
<g style="fill:#37474f;">
  <path d="m9.385 9.91 24.072-3.813c.545-.086 1.058.286 1.144.831l4.746 29.958c.086.545-.286 1.058-.831 1.144l-24.072 3.813c-.545.086-1.058-.286-1.144-.831l-4.747-29.958c-.086-.545.286-1.057.832-1.144z"/>
</g>
<g style="fill:#b0bec5;">
  <path d="m34.108 20.903c0 5.8-4.7 10.5-10.5 10.5-1.79 0-3.48-.45-4.95-1.24-1.83-.98-3.33-2.48-4.31-4.31-.79-1.47-1.24-3.16-1.24-4.95 0-5.8 4.7-10.5 10.5-10.5 1.79 0 3.48.45 4.95 1.24 1.83.98 3.33 2.48 4.31 4.31.79 1.469 1.24 3.159 1.24 4.95z"/>
</g>
<g style="fill:#90a4ae;">
  <path d="m27.108 20.903c0 1.93-1.57 3.5-3.5 3.5-.6 0-1.16-.15-1.65-.41-.61-.33-1.11-.83-1.44-1.44-.26-.49-.41-1.05-.41-1.65 0-1.93 1.57-3.5 3.5-3.5.6 0 1.16.15 1.65.41.61.33 1.11.83 1.44 1.44.26.489.41 1.049.41 1.65z"/>
</g>
<g style="fill:#eceff1;" transform="matrix(0.987699 -0.156366 0.156366 0.987699 -5.27268 4.55233)">
  <path d="m21.382 33.644h9.816v4.276h-9.816z"/>
</g>
<g style="fill:#cfd8dc;" transform="matrix(0.987699 -0.156366 0.156366 0.987699 -5.27268 4.55233)">
  <path d="m21.958 23.992-3.3 6.17c-1.83-.98-3.33-2.48-4.31-4.31l6.17-3.3c.33.611.83 1.111 1.44 1.44z"/>
</g>
<g style="fill:#b0bec5;" transform="matrix(0.987699 -0.156366 0.156366 0.987699 -5.27268 4.55233)">
  <path d="m23.608 20.903-1.65 3.09c-.61-.33-1.11-.83-1.44-1.44z"/>
</g>
<g style="fill:#cfd8dc;" transform="matrix(0.987699 -0.156366 0.156366 0.987699 -5.27268 4.55233)">
  <path d="m32.868 15.952-6.17 3.3c-.33-.61-.83-1.11-1.44-1.44l3.3-6.17c1.83.98 3.33 2.48 4.31 4.31z"/>
</g>
<g style="fill:#b0bec5;" transform="matrix(0.987699 -0.156366 0.156366 0.987699 -5.27268 4.55233)">
  <path d="m26.698 19.252-3.09 1.65 1.65-3.09c.61.33 1.11.83 1.44 1.44z"/>
</g>
<g style="fill:#37474f;" transform="matrix(0.987699 -0.156366 0.156366 0.987699 -5.27268 4.55233)">
  <circle cx="23.608" cy="20.903" r="0.5"/>
</g>
</g>
</svg>
