<svg height="800" viewBox="0 0 50 50" width="800"><path d="m7 3c-.55 0-1 .45-1 1v42c0 .55.45 1 1 1h36c.55 0 1-.45 1-1v-42c0-.55-.45-1-1-1zm18 5c7.18 0 13 5.82 13 13s-5.82 13-13 13-13-5.82-13-13 5.82-13 13-13zm0 4c-4.958718 0-9 4.041282-9 9s4.041282 9 9 9 9-4.041282 9-9-4.041282-9-9-9zm0 2c3.877838 0 7 3.122162 7 7s-3.122162 7-7 7-7-3.122162-7-7 3.122162-7 7-7zm0 5a2 2 0 0 0 -2 2 2 2 0 0 0 2 2 2 2 0 0 0 2-2 2 2 0 0 0 -2-2zm-7 19h14c.55 0 1 .45 1 1v3c0 .55-.45 1-1 1h-14c-.55 0-1-.45-1-1v-3c0-.55.45-1 1-1z"/></svg>