<svg height="800" viewBox="0 0 50 50" width="800"><path d="m7 3a1.0001 1.0001 0 0 0 -1 1v12.599609 18.900391 10.5a1.0001 1.0001 0 0 0 1 1h9.900391 16.199218 9.900391a1.0001 1.0001 0 0 0 1-1v-10.5-18.900391-12.599609a1.0001 1.0001 0 0 0 -1-1h-9.900391-16.199218zm1 2h8.900391 16.199218 8.900391v11.599609 18.900391 9.5h-8.900391-16.199218-8.900391v-9.5-18.900391zm17 3c-7.167857 0-13 5.832143-13 13s5.832143 13 13 13 13-5.832143 13-13-5.832143-13-13-13zm0 2c6.086977 0 11 4.913023 11 11s-4.913023 11-11 11-11-4.913023-11-11 4.913023-11 11-11zm0 3c-4.406433 0-8 3.593567-8 8s3.593567 8 8 8 8-3.593567 8-8-3.593567-8-8-8zm0 2c3.325553 0 6 2.674447 6 6s-2.674447 6-6 6-6-2.674447-6-6 2.674447-6 6-6zm0 4a2 2 0 0 0 -2 2 2 2 0 0 0 2 2 2 2 0 0 0 2-2 2 2 0 0 0 -2-2zm-7 18a1.0001 1.0001 0 0 0 -1 1v1.199219 1.800781 1a1.0001 1.0001 0 0 0 1 1h3.849609 6.300782 3.849609a1.0001 1.0001 0 0 0 1-1v-1-1.800781-1.199219a1.0001 1.0001 0 0 0 -1-1h-3.849609-6.300782zm1 2h2.849609 6.300782 2.849609v.199219 1.800781h-2.849609-6.300782-2.849609v-1.800781z"/></svg>