<svg height="800" preserveAspectRatio="xMidYMid" viewBox="-38 0 332 332" width="800" xmlns="http://www.w3.org/2000/svg" xmlns:xlink="http://www.w3.org/1999/xlink"><linearGradient id="a" x1="55.1171%" x2="63.680178%" y1="58.679541%" y2="39.597157%"><stop offset="0" stop-color="#ff9700"/><stop offset=".53" stop-color="#f48e00"/><stop offset="1" stop-color="#d06f00"/></linearGradient><path d="m255.288325 166.794648c0-3.886596-2.872391-6.127771-6.397279-5.014276l-242.49376666 76.895015c-3.53197905 1.120587-6.39727934 5.184491-6.39727934 9.063993v78.590081c0 3.886596 2.86530029 6.134863 6.39727934 5.014276l242.49376666-76.887923c3.524888-1.120587 6.397279-5.184491 6.397279-9.071085z" fill="url(#a)"/><g fill="#ff9800"><path d="m0 164.291056c0 3.886596 2.86530029 7.950499 6.39727934 9.071088l242.52922866 76.902106c3.531979 1.120587 6.397279-1.12768 6.397279-5.007183v-78.597174c0-3.879502-2.8653-7.943406-6.397279-9.063994l-242.52922866-76.902106c-3.53197905-1.1205878-6.39727934 1.1205878-6.39727934 5.0071831z"/><path d="m255.288325 5.30235244c0-3.88659543-2.872391-6.13486323-6.397279-5.0142755l-242.49376666 76.88792166c-3.53197905 1.1205878-6.39727934 5.1844914-6.39727934 9.0710868v78.5900796c0 3.886596 2.86530029 6.127771 6.39727934 5.014276l242.49376666-76.8950138c3.524888-1.1205878 6.397279-5.1844914 6.397279-9.0639945z"/></g></svg>